<!-- Generator: Adobe Illustrator 24.0.3, SVG Export Plug-In  -->
<svg version="1.1" xmlns="http://www.w3.org/2000/svg" xmlns:xlink="http://www.w3.org/1999/xlink" x="0px" y="0px"
	 width="413.24px" height="49.76px" viewBox="0 0 413.24 49.76" style="enable-background:new 0 0 413.24 49.76;"
	 xml:space="preserve">
<style type="text/css">
	.st0{fill:#FFFFFF;}
</style>
<defs>
</defs>
<g>
	<g transform="matrix(1,0,0,1,32,76.5)">
		<g transform="matrix(1,0,0,1,0,0)">
			<path class="st0" d="M381.24-36.6v-9.41h-9.08v9.41H381.24z"/>
		</g>
	</g>
	<g transform="matrix(1,0,0,1,32.000022888183594,76.5)">
		<g transform="matrix(1,0,0,1,0,0)">
			<path class="st0" d="M366.4-62.88c-2.02-1.34-4.14-2.4-6.36-3.17c-2.22-0.76-4.49-1.15-6.81-1.15c-1.53,0-3.04,0.19-4.54,0.56
				c-1.49,0.37-2.84,0.98-4.03,1.82c-1.2,0.84-2.17,1.92-2.91,3.25c-0.75,1.33-1.12,2.92-1.12,4.79c0,1.76,0.44,3.16,1.32,4.2
				c0.88,1.05,1.97,1.87,3.28,2.47c1.31,0.6,2.72,1.05,4.23,1.34c1.51,0.3,2.92,0.58,4.23,0.84c1.31,0.26,2.4,0.58,3.28,0.95
				c0.88,0.37,1.32,0.95,1.32,1.74c0,0.67-0.18,1.2-0.53,1.6c-0.36,0.39-0.78,0.7-1.29,0.92c-0.5,0.22-1.03,0.36-1.57,0.42
				c-0.54,0.06-1,0.08-1.37,0.08c-2.02,0-3.75-0.37-5.21-1.12c-1.46-0.75-2.86-1.77-4.2-3.08l-5.44,4.71
				c1.08,1.01,2.15,1.89,3.19,2.63c1.05,0.75,2.14,1.35,3.28,1.82c1.14,0.47,2.36,0.82,3.67,1.06c1.31,0.24,2.78,0.36,4.43,0.36
				c1.61,0,3.21-0.19,4.82-0.56c1.61-0.37,3.05-0.98,4.34-1.82c1.29-0.84,2.33-1.93,3.11-3.28c0.78-1.34,1.18-3.01,1.18-4.99
				c0-1.87-0.44-3.34-1.32-4.43c-0.88-1.08-1.97-1.92-3.28-2.52c-1.31-0.6-2.72-1.05-4.23-1.34c-1.51-0.3-2.92-0.58-4.23-0.84
				c-1.31-0.26-2.4-0.6-3.28-1.01c-0.88-0.41-1.32-1.05-1.32-1.91c0-0.75,0.35-1.32,1.06-1.71c0.71-0.39,1.61-0.59,2.69-0.59
				c0.67,0,1.4,0.07,2.19,0.2c0.78,0.13,1.55,0.34,2.3,0.62c0.75,0.28,1.45,0.62,2.1,1.01c0.65,0.39,1.2,0.85,1.65,1.37L366.4-62.88
				z"/>
		</g>
	</g>
	<g transform="matrix(1,0,0,1,32.00001525878906,76.5)">
		<g transform="matrix(1,0,0,1,0,0)">
			<path class="st0" d="M314.96-55.09c0.11-0.97,0.36-1.82,0.76-2.55c0.39-0.73,0.87-1.33,1.43-1.79c0.56-0.47,1.17-0.81,1.82-1.04
				c0.65-0.22,1.3-0.34,1.93-0.34c0.63,0,1.29,0.09,1.96,0.28c0.67,0.19,1.29,0.5,1.85,0.95c0.56,0.45,1.04,1.04,1.43,1.77
				c0.39,0.73,0.62,1.63,0.7,2.72H314.96z M335.58-49.72c0-2.28-0.25-4.47-0.76-6.58c-0.5-2.11-1.34-3.98-2.49-5.6
				c-1.16-1.62-2.66-2.91-4.51-3.87c-1.85-0.95-4.14-1.43-6.86-1.43c-4.56,0-8.13,1.44-10.73,4.31c-2.6,2.88-3.89,6.97-3.89,12.27
				c0,2.09,0.33,4.04,0.98,5.86c0.65,1.81,1.61,3.38,2.86,4.71c1.25,1.33,2.78,2.36,4.59,3.11c1.81,0.75,3.88,1.12,6.19,1.12
				c3.36,0,6.23-0.67,8.6-2.02c2.37-1.34,4.32-3.42,5.86-6.22l-6.56-3.42c-0.64,0.9-1.21,1.67-1.74,2.33
				c-0.52,0.65-1.06,1.2-1.62,1.65c-0.56,0.45-1.15,0.78-1.77,0.98c-0.62,0.21-1.34,0.31-2.16,0.31c-0.71,0-1.44-0.12-2.19-0.36
				c-0.75-0.24-1.44-0.65-2.07-1.23c-0.64-0.58-1.17-1.35-1.6-2.33c-0.43-0.97-0.64-2.17-0.64-3.59H335.58z"/>
		</g>
	</g>
	<g transform="matrix(1,0,0,1,32.00000762939453,76.5)">
		<g transform="matrix(1,0,0,1,0,0)">
			<path class="st0" d="M282.68-55.12c0.22-1.14,0.59-2.13,1.09-2.97c0.5-0.84,1.15-1.5,1.93-1.99c0.78-0.49,1.72-0.73,2.8-0.73
				c1.08,0,2.01,0.24,2.77,0.73c0.76,0.49,1.38,1.13,1.85,1.93c0.47,0.8,0.8,1.7,1.01,2.69c0.2,0.99,0.31,1.99,0.31,3
				c0,1.53-0.1,2.92-0.31,4.17c-0.21,1.25-0.55,2.33-1.04,3.22c-0.49,0.9-1.11,1.6-1.88,2.1c-0.77,0.5-1.71,0.76-2.83,0.76
				c-1.12,0-2.06-0.24-2.83-0.73c-0.77-0.48-1.39-1.15-1.88-1.99c-0.49-0.84-0.83-1.83-1.04-2.97c-0.21-1.14-0.31-2.34-0.31-3.61
				C282.35-52.78,282.46-53.98,282.68-55.12z M273.83-26.74h8.74v-11.77h0.11c2.02,1.79,4.46,2.69,7.34,2.69
				c4.03,0,7.16-1.37,9.39-4.12c2.22-2.75,3.33-6.94,3.33-12.58c0-2.39-0.34-4.5-1.01-6.33c-0.67-1.83-1.59-3.36-2.75-4.59
				c-1.16-1.23-2.51-2.17-4.06-2.8c-1.55-0.63-3.2-0.95-4.96-0.95c-1.38,0-2.79,0.25-4.23,0.76c-1.44,0.5-2.68,1.43-3.73,2.77h-0.11
				v-2.75h-8.07V-26.74z"/>
		</g>
	</g>
	<g transform="matrix(1,0,0,1,31.999990463256836,76.5)">
		<g transform="matrix(1,0,0,1,0,0)">
			<path class="st0" d="M246.26-66.16c-1.94,0.69-3.61,1.71-5.02,3.05c-1.4,1.34-2.49,2.99-3.28,4.93
				c-0.78,1.94-1.18,4.17-1.18,6.67c0,2.5,0.39,4.73,1.18,6.67c0.78,1.94,1.88,3.59,3.28,4.93s3.07,2.36,5.02,3.05
				c1.94,0.69,4.07,1.04,6.39,1.04c2.32,0,4.44-0.35,6.39-1.04c1.94-0.69,3.61-1.71,5.02-3.05s2.49-2.99,3.28-4.93
				c0.78-1.94,1.18-4.16,1.18-6.67c0-2.5-0.39-4.73-1.18-6.67c-0.78-1.94-1.88-3.59-3.28-4.93c-1.4-1.34-3.07-2.36-5.02-3.05
				c-1.94-0.69-4.07-1.04-6.39-1.04C250.33-67.2,248.2-66.85,246.26-66.16z M255.84-59.8c0.9,0.45,1.63,1.06,2.21,1.85
				c0.58,0.78,1.01,1.7,1.29,2.75c0.28,1.05,0.42,2.17,0.42,3.36c0,1.34-0.14,2.59-0.42,3.73c-0.28,1.14-0.71,2.12-1.29,2.94
				c-0.58,0.82-1.32,1.47-2.21,1.93c-0.9,0.47-1.96,0.7-3.19,0.7c-1.23,0-2.3-0.22-3.19-0.67s-1.63-1.07-2.21-1.88
				c-0.58-0.8-1.01-1.76-1.29-2.86c-0.28-1.1-0.42-2.29-0.42-3.56c0-1.27,0.14-2.46,0.42-3.56c0.28-1.1,0.71-2.05,1.29-2.86
				c0.58-0.8,1.32-1.43,2.21-1.88c0.9-0.45,1.96-0.67,3.19-0.67C253.88-60.47,254.95-60.25,255.84-59.8z"/>
		</g>
	</g>
	<g transform="matrix(1,0,0,1,32,76.5)">
		<g transform="matrix(1,0,0,1,0,0)">
			<path class="st0" d="M231.08-36.6v-39.9h-8.74v39.9H231.08z"/>
		</g>
	</g>
	<g transform="matrix(1,0,0,1,32,76.5)">
		<g transform="matrix(1,0,0,1,0,0)">
			<path class="st0" d="M198.91-36.6v-39.9h-8.74v39.9H198.91z"/>
		</g>
	</g>
	<g transform="matrix(1,0,0,1,31.9999942779541,76.5)">
		<g transform="matrix(1,0,0,1,0,0)">
			<path class="st0" d="M163.44-55.09c0.11-0.97,0.36-1.82,0.76-2.55c0.39-0.73,0.87-1.33,1.43-1.79c0.56-0.47,1.17-0.81,1.82-1.04
				c0.65-0.22,1.3-0.34,1.93-0.34c0.63,0,1.29,0.09,1.96,0.28c0.67,0.19,1.29,0.5,1.85,0.95c0.56,0.45,1.04,1.04,1.43,1.77
				c0.39,0.73,0.63,1.63,0.7,2.72H163.44z M184.06-49.72c0-2.28-0.25-4.47-0.76-6.58c-0.5-2.11-1.34-3.98-2.49-5.6
				c-1.16-1.62-2.66-2.91-4.51-3.87c-1.85-0.95-4.14-1.43-6.86-1.43c-4.56,0-8.13,1.44-10.73,4.31c-2.6,2.88-3.89,6.97-3.89,12.27
				c0,2.09,0.33,4.04,0.98,5.86c0.65,1.81,1.61,3.38,2.86,4.71c1.25,1.33,2.78,2.36,4.59,3.11c1.81,0.75,3.88,1.12,6.19,1.12
				c3.36,0,6.23-0.67,8.6-2.02c2.37-1.34,4.32-3.42,5.86-6.22l-6.56-3.42c-0.64,0.9-1.21,1.67-1.74,2.33
				c-0.52,0.65-1.06,1.2-1.62,1.65c-0.56,0.45-1.15,0.78-1.77,0.98c-0.62,0.21-1.34,0.31-2.16,0.31c-0.71,0-1.44-0.12-2.19-0.36
				c-0.75-0.24-1.44-0.65-2.07-1.23c-0.64-0.58-1.17-1.35-1.6-2.33c-0.43-0.97-0.64-2.17-0.64-3.59H184.06z"/>
		</g>
	</g>
	<g transform="matrix(1,0,0,1,32.00000762939453,76.5)">
		<g transform="matrix(1,0,0,1,0,0)">
			<path class="st0" d="M149.1-66.41h-8.74v18.88c0,1.64-0.46,2.83-1.37,3.56c-0.92,0.73-2.01,1.09-3.28,1.09
				c-1.68,0-2.81-0.34-3.39-1.04c-0.58-0.69-0.87-1.69-0.87-3v-19.5h-8.74v22.02c0,1.12,0.14,2.2,0.42,3.22
				c0.28,1.03,0.76,1.94,1.46,2.75c0.69,0.8,1.62,1.44,2.77,1.91c1.16,0.47,2.61,0.7,4.37,0.7c0.67,0,1.39-0.06,2.16-0.17
				c0.76-0.11,1.54-0.3,2.33-0.56c0.78-0.26,1.53-0.61,2.24-1.04c0.71-0.43,1.34-0.98,1.91-1.65v2.63h8.74V-66.41z"/>
		</g>
	</g>
	<g transform="matrix(1,0,0,1,32.000003814697266,76.5)">
		<g transform="matrix(1,0,0,1,0,0)">
			<path class="st0" d="M88.47-36.6h8.74v-18.55c0-1.34,0.34-2.51,1.01-3.5c0.67-0.99,1.89-1.48,3.64-1.48
				c1.68,0,2.81,0.45,3.39,1.34c0.58,0.9,0.87,2.07,0.87,3.53v18.66h8.74v-22.02c0-1.12-0.14-2.19-0.42-3.22
				c-0.28-1.03-0.77-1.94-1.46-2.75c-0.69-0.8-1.62-1.44-2.77-1.91c-1.16-0.47-2.62-0.7-4.37-0.7c-0.67,0-1.39,0.06-2.16,0.17
				c-0.77,0.11-1.54,0.3-2.33,0.56c-0.78,0.26-1.53,0.61-2.24,1.04c-0.71,0.43-1.34,0.98-1.91,1.65v-2.63h-8.74V-36.6z"/>
		</g>
	</g>
	<g transform="matrix(1,0,0,1,31.999998092651367,76.5)">
		<g transform="matrix(1,0,0,1,0,0)">
			<path class="st0" d="M80.4-58.57c0-1.68-0.32-3.07-0.95-4.17c-0.64-1.1-1.52-1.99-2.66-2.66c-1.14-0.67-2.53-1.14-4.17-1.4
				c-1.64-0.26-3.47-0.39-5.49-0.39c-1.01,0-2.2,0.08-3.59,0.25c-1.38,0.17-2.7,0.57-3.95,1.2c-1.25,0.64-2.34,1.58-3.25,2.83
				c-0.92,1.25-1.41,2.94-1.48,5.07h8.41c0.22-1.49,0.69-2.53,1.4-3.11c0.71-0.58,1.77-0.87,3.19-0.87c1.19,0,2.19,0.25,2.97,0.76
				c0.78,0.5,1.18,1.32,1.18,2.44v2.47l-3.19,0.45c-2.39,0.34-4.53,0.77-6.42,1.29c-1.89,0.52-3.49,1.2-4.82,2.05
				c-1.33,0.84-2.34,1.89-3.03,3.14c-0.69,1.25-1.04,2.77-1.04,4.57c0,1.42,0.25,2.68,0.76,3.78c0.5,1.1,1.2,2.03,2.1,2.77
				c0.9,0.75,1.95,1.32,3.17,1.71c1.21,0.39,2.53,0.59,3.95,0.59c0.78,0,1.62-0.09,2.52-0.28c0.9-0.19,1.77-0.45,2.61-0.78
				c0.84-0.34,1.6-0.74,2.27-1.2c0.67-0.47,1.19-1,1.57-1.6h0.11c0.04,0.52,0.09,1.04,0.17,1.54c0.07,0.5,0.21,1.02,0.39,1.54h8.07
				c-0.37-0.93-0.6-1.94-0.67-3.03c-0.07-1.08-0.11-2.15-0.11-3.19V-58.57z M72-49.04c0,2.28-0.57,3.99-1.71,5.13
				c-1.14,1.14-2.57,1.71-4.29,1.71c-1.08,0-2.04-0.26-2.86-0.78c-0.82-0.52-1.23-1.38-1.23-2.58c0-1.19,0.43-2.06,1.29-2.61
				c0.86-0.54,1.83-0.96,2.91-1.26L72-51.12V-49.04z"/>
		</g>
	</g>
	<g transform="matrix(1,0,0,1,32.000003814697266,76.5)">
		<g transform="matrix(1,0,0,1,0,0)">
			<path class="st0" d="M3.36-36.6h8.74v-18.55c0-1.34,0.34-2.51,1.01-3.5c0.67-0.99,1.89-1.48,3.64-1.48
				c1.68,0,2.81,0.45,3.39,1.34c0.58,0.9,0.87,2.07,0.87,3.53v18.66h8.74v-18.32c0-1.53,0.37-2.78,1.12-3.75
				c0.75-0.97,1.85-1.46,3.31-1.46c1.68,0,2.85,0.49,3.5,1.46c0.65,0.97,0.98,2.52,0.98,4.65v17.43h8.74v-22.75
				c0-1.72-0.35-3.09-1.04-4.12c-0.69-1.03-1.51-1.82-2.47-2.38c-0.95-0.56-1.96-0.92-3.03-1.09c-1.06-0.17-1.95-0.25-2.66-0.25
				c-1.76,0-3.44,0.3-5.04,0.9c-1.61,0.6-3.12,1.62-4.54,3.08c-0.97-1.31-2.1-2.3-3.39-2.97c-1.29-0.67-2.79-1.01-4.51-1.01
				c-0.67,0-1.39,0.06-2.16,0.17c-0.77,0.11-1.54,0.3-2.33,0.56c-0.78,0.26-1.53,0.61-2.24,1.04c-0.71,0.43-1.34,0.98-1.91,1.65
				v-2.63H3.36V-36.6z"/>
		</g>
	</g>
	<g transform="matrix(1,0,0,1,32,76.5)">
		<g transform="matrix(1,0,0,1,0,0)">
			<path class="st0" d="M-23.37-55.09c0.11-0.97,0.36-1.82,0.76-2.55c0.39-0.73,0.87-1.33,1.43-1.79c0.56-0.47,1.17-0.81,1.82-1.04
				c0.65-0.22,1.3-0.34,1.93-0.34c0.63,0,1.29,0.09,1.96,0.28c0.67,0.19,1.29,0.5,1.85,0.95c0.56,0.45,1.04,1.04,1.43,1.77
				c0.39,0.73,0.63,1.63,0.7,2.72H-23.37z M-2.75-49.72c0-2.28-0.25-4.47-0.76-6.58c-0.5-2.11-1.34-3.98-2.49-5.6
				c-1.16-1.62-2.66-2.91-4.51-3.87c-1.85-0.95-4.14-1.43-6.86-1.43c-4.56,0-8.13,1.44-10.73,4.31C-30.7-60.01-32-55.92-32-50.61
				c0,2.09,0.33,4.04,0.98,5.86c0.65,1.81,1.61,3.38,2.86,4.71c1.25,1.33,2.78,2.36,4.59,3.11c1.81,0.75,3.88,1.12,6.19,1.12
				c3.36,0,6.23-0.67,8.6-2.02c2.37-1.34,4.32-3.42,5.86-6.22l-6.56-3.42c-0.64,0.9-1.21,1.67-1.74,2.33
				c-0.52,0.65-1.06,1.2-1.62,1.65s-1.15,0.78-1.77,0.98c-0.62,0.21-1.34,0.31-2.16,0.31c-0.71,0-1.44-0.12-2.19-0.36
				c-0.75-0.24-1.44-0.65-2.07-1.23c-0.64-0.58-1.17-1.35-1.6-2.33c-0.43-0.97-0.64-2.17-0.64-3.59H-2.75z"/>
		</g>
	</g>
</g>
</svg>
